<svg xmlns="http://www.w3.org/2000/svg" version="1.1" xmlns:xlink="http://www.w3.org/1999/xlink" xmlns:svgjs="http://svgjs.dev/svgjs" width="1440" height="560" preserveAspectRatio="none" viewBox="0 0 1440 560"><g mask="url(&quot;#SvgjsMask2478&quot;)" fill="none"><rect width="1440" height="560" x="0" y="0" fill="url(&quot;#SvgjsLinearGradient2479&quot;)"></rect><path d="M-40.65 394.73L-40.65 394.73" stroke="#132e65" stroke-width="1.5"></path><path d="M-40.65 394.73L-95.76 527.95" stroke="#132e65" stroke-width="1.5"></path><path d="M-40.65 394.73L103.36 516.74" stroke="#132e65" stroke-width="1.5"></path><path d="M-40.65 394.73L-90.16 647.64" stroke="#132e65" stroke-width="1.5"></path><path d="M-40.65 394.73L245.98 409.74" stroke="#132e65" stroke-width="1.5"></path><path d="M-40.65 394.73L65.12 700.35" stroke="#132e65" stroke-width="1.5"></path><path d="M-95.76 527.95L-95.76 527.95" stroke="#132e65" stroke-width="1.5"></path><path d="M-95.76 527.95L-90.16 647.64" stroke="#132e65" stroke-width="1.5"></path><path d="M-95.76 527.95L103.36 516.74" stroke="#132e65" stroke-width="1.5"></path><path d="M-95.76 527.95L65.12 700.35" stroke="#132e65" stroke-width="1.5"></path><path d="M-95.76 527.95L189.27 666.29" stroke="#132e65" stroke-width="1.5"></path><path d="M-90.16 647.64L-90.16 647.64" stroke="#132e65" stroke-width="1.5"></path><path d="M-90.16 647.64L65.12 700.35" stroke="#132e65" stroke-width="1.5"></path><path d="M103.36 516.74L103.36 516.74" stroke="#132e65" stroke-width="1.5"></path><path d="M103.36 516.74L245.62 559.56" stroke="#132e65" stroke-width="1.5"></path><path d="M103.36 516.74L189.27 666.29" stroke="#132e65" stroke-width="1.5"></path><path d="M103.36 516.74L245.98 409.74" stroke="#132e65" stroke-width="1.5"></path><path d="M65.12 700.35L65.12 700.35" stroke="#132e65" stroke-width="1.5"></path><path d="M65.12 700.35L189.27 666.29" stroke="#132e65" stroke-width="1.5"></path><path d="M65.12 700.35L103.36 516.74" stroke="#132e65" stroke-width="1.5"></path><path d="M65.12 700.35L245.62 559.56" stroke="#132e65" stroke-width="1.5"></path><path d="M245.98 409.74L245.98 409.74" stroke="#132e65" stroke-width="1.5"></path><path d="M245.98 409.74L245.62 559.56" stroke="#132e65" stroke-width="1.5"></path><path d="M245.98 409.74L389.09 360.63" stroke="#132e65" stroke-width="1.5"></path><path d="M245.98 409.74L407.81 491.43" stroke="#132e65" stroke-width="1.5"></path><path d="M245.98 409.74L189.27 666.29" stroke="#132e65" stroke-width="1.5"></path><path d="M245.62 559.56L245.62 559.56" stroke="#132e65" stroke-width="1.5"></path><path d="M245.62 559.56L189.27 666.29" stroke="#132e65" stroke-width="1.5"></path><path d="M189.27 666.29L189.27 666.29" stroke="#132e65" stroke-width="1.5"></path><path d="M389.09 360.63L389.09 360.63" stroke="#132e65" stroke-width="1.5"></path><path d="M389.09 360.63L407.81 491.43" stroke="#132e65" stroke-width="1.5"></path><path d="M389.09 360.63L535.38 410.74" stroke="#132e65" stroke-width="1.5"></path><path d="M389.09 360.63L521.3 556.16" stroke="#132e65" stroke-width="1.5"></path><path d="M389.09 360.63L245.62 559.56" stroke="#132e65" stroke-width="1.5"></path><path d="M389.09 360.63L677.18 378.92" stroke="#132e65" stroke-width="1.5"></path><path d="M407.81 491.43L407.81 491.43" stroke="#132e65" stroke-width="1.5"></path><path d="M407.81 491.43L521.3 556.16" stroke="#132e65" stroke-width="1.5"></path><path d="M407.81 491.43L535.38 410.74" stroke="#132e65" stroke-width="1.5"></path><path d="M407.81 491.43L245.62 559.56" stroke="#132e65" stroke-width="1.5"></path><path d="M356.38 663.06L356.38 663.06" stroke="#132e65" stroke-width="1.5"></path><path d="M356.38 663.06L245.62 559.56" stroke="#132e65" stroke-width="1.5"></path><path d="M356.38 663.06L189.27 666.29" stroke="#132e65" stroke-width="1.5"></path><path d="M356.38 663.06L523.33 641.01" stroke="#132e65" stroke-width="1.5"></path><path d="M356.38 663.06L407.81 491.43" stroke="#132e65" stroke-width="1.5"></path><path d="M356.38 663.06L521.3 556.16" stroke="#132e65" stroke-width="1.5"></path><path d="M356.38 663.06L245.98 409.74" stroke="#132e65" stroke-width="1.5"></path><path d="M535.38 410.74L535.38 410.74" stroke="#132e65" stroke-width="1.5"></path><path d="M535.38 410.74L677.18 378.92" stroke="#132e65" stroke-width="1.5"></path><path d="M535.38 410.74L521.3 556.16" stroke="#132e65" stroke-width="1.5"></path><path d="M521.3 556.16L521.3 556.16" stroke="#132e65" stroke-width="1.5"></path><path d="M521.3 556.16L523.33 641.01" stroke="#132e65" stroke-width="1.5"></path><path d="M523.33 641.01L523.33 641.01" stroke="#132e65" stroke-width="1.5"></path><path d="M523.33 641.01L651.69 668.59" stroke="#132e65" stroke-width="1.5"></path><path d="M523.33 641.01L674.64 558.4" stroke="#132e65" stroke-width="1.5"></path><path d="M704.81 234.04L704.81 234.04" stroke="#132e65" stroke-width="1.5"></path><path d="M704.81 234.04L801.8 203.21" stroke="#132e65" stroke-width="1.5"></path><path d="M704.81 234.04L677.18 378.92" stroke="#132e65" stroke-width="1.5"></path><path d="M704.81 234.04L848.81 363.15" stroke="#132e65" stroke-width="1.5"></path><path d="M704.81 234.04L535.38 410.74" stroke="#132e65" stroke-width="1.5"></path><path d="M677.18 378.92L677.18 378.92" stroke="#132e65" stroke-width="1.5"></path><path d="M674.64 558.4L674.64 558.4" stroke="#132e65" stroke-width="1.5"></path><path d="M674.64 558.4L651.69 668.59" stroke="#132e65" stroke-width="1.5"></path><path d="M674.64 558.4L810.75 490.49" stroke="#132e65" stroke-width="1.5"></path><path d="M674.64 558.4L521.3 556.16" stroke="#132e65" stroke-width="1.5"></path><path d="M651.69 668.59L651.69 668.59" stroke="#132e65" stroke-width="1.5"></path><path d="M651.69 668.59L521.3 556.16" stroke="#132e65" stroke-width="1.5"></path><path d="M651.69 668.59L827.13 675.45" stroke="#132e65" stroke-width="1.5"></path><path d="M651.69 668.59L810.75 490.49" stroke="#132e65" stroke-width="1.5"></path><path d="M651.69 668.59L535.38 410.74" stroke="#132e65" stroke-width="1.5"></path><path d="M801.8 203.21L801.8 203.21" stroke="#132e65" stroke-width="1.5"></path><path d="M801.8 203.21L948.18 198.33" stroke="#132e65" stroke-width="1.5"></path><path d="M801.8 203.21L848.81 363.15" stroke="#132e65" stroke-width="1.5"></path><path d="M801.8 203.21L974.73 80.06" stroke="#132e65" stroke-width="1.5"></path><path d="M848.81 363.15L848.81 363.15" stroke="#132e65" stroke-width="1.5"></path><path d="M848.81 363.15L975.84 365.02" stroke="#132e65" stroke-width="1.5"></path><path d="M848.81 363.15L810.75 490.49" stroke="#132e65" stroke-width="1.5"></path><path d="M848.81 363.15L677.18 378.92" stroke="#132e65" stroke-width="1.5"></path><path d="M810.75 490.49L810.75 490.49" stroke="#132e65" stroke-width="1.5"></path><path d="M810.75 490.49L677.18 378.92" stroke="#132e65" stroke-width="1.5"></path><path d="M810.75 490.49L827.13 675.45" stroke="#132e65" stroke-width="1.5"></path><path d="M810.75 490.49L1008.19 508.01" stroke="#132e65" stroke-width="1.5"></path><path d="M810.75 490.49L975.84 365.02" stroke="#132e65" stroke-width="1.5"></path><path d="M827.13 675.45L827.13 675.45" stroke="#132e65" stroke-width="1.5"></path><path d="M827.13 675.45L992.12 687.6" stroke="#132e65" stroke-width="1.5"></path><path d="M827.13 675.45L674.64 558.4" stroke="#132e65" stroke-width="1.5"></path><path d="M827.13 675.45L1008.19 508.01" stroke="#132e65" stroke-width="1.5"></path><path d="M827.13 675.45L1120.36 669.58" stroke="#132e65" stroke-width="1.5"></path><path d="M958.96 -79.96L958.96 -79.96" stroke="#132e65" stroke-width="1.5"></path><path d="M958.96 -79.96L974.73 80.06" stroke="#132e65" stroke-width="1.5"></path><path d="M958.96 -79.96L1157.11 -47.15" stroke="#132e65" stroke-width="1.5"></path><path d="M958.96 -79.96L1154.98 76.27" stroke="#132e65" stroke-width="1.5"></path><path d="M958.96 -79.96L948.18 198.33" stroke="#132e65" stroke-width="1.5"></path><path d="M958.96 -79.96L1245.74 41.4" stroke="#132e65" stroke-width="1.5"></path><path d="M958.96 -79.96L801.8 203.21" stroke="#132e65" stroke-width="1.5"></path><path d="M974.73 80.06L974.73 80.06" stroke="#132e65" stroke-width="1.5"></path><path d="M974.73 80.06L948.18 198.33" stroke="#132e65" stroke-width="1.5"></path><path d="M948.18 198.33L948.18 198.33" stroke="#132e65" stroke-width="1.5"></path><path d="M948.18 198.33L975.84 365.02" stroke="#132e65" stroke-width="1.5"></path><path d="M948.18 198.33L848.81 363.15" stroke="#132e65" stroke-width="1.5"></path><path d="M948.18 198.33L1093.6 365.62" stroke="#132e65" stroke-width="1.5"></path><path d="M975.84 365.02L975.84 365.02" stroke="#132e65" stroke-width="1.5"></path><path d="M975.84 365.02L1093.6 365.62" stroke="#132e65" stroke-width="1.5"></path><path d="M975.84 365.02L1008.19 508.01" stroke="#132e65" stroke-width="1.5"></path><path d="M1008.19 508.01L1008.19 508.01" stroke="#132e65" stroke-width="1.5"></path><path d="M1008.19 508.01L1122.37 534.26" stroke="#132e65" stroke-width="1.5"></path><path d="M992.12 687.6L992.12 687.6" stroke="#132e65" stroke-width="1.5"></path><path d="M992.12 687.6L1120.36 669.58" stroke="#132e65" stroke-width="1.5"></path><path d="M1157.11 -47.15L1157.11 -47.15" stroke="#132e65" stroke-width="1.5"></path><path d="M1157.11 -47.15L1154.98 76.27" stroke="#132e65" stroke-width="1.5"></path><path d="M1157.11 -47.15L1245.74 41.4" stroke="#132e65" stroke-width="1.5"></path><path d="M1154.98 76.27L1154.98 76.27" stroke="#132e65" stroke-width="1.5"></path><path d="M1154.98 76.27L1245.74 41.4" stroke="#132e65" stroke-width="1.5"></path><path d="M1154.98 76.27L1238.46 213.53" stroke="#132e65" stroke-width="1.5"></path><path d="M1154.98 76.27L974.73 80.06" stroke="#132e65" stroke-width="1.5"></path><path d="M1154.98 76.27L1284.22 -51.53" stroke="#132e65" stroke-width="1.5"></path><path d="M1093.6 365.62L1093.6 365.62" stroke="#132e65" stroke-width="1.5"></path><path d="M1093.6 365.62L1241.17 370.6" stroke="#132e65" stroke-width="1.5"></path><path d="M1122.37 534.26L1122.37 534.26" stroke="#132e65" stroke-width="1.5"></path><path d="M1122.37 534.26L1120.36 669.58" stroke="#132e65" stroke-width="1.5"></path><path d="M1120.36 669.58L1120.36 669.58" stroke="#132e65" stroke-width="1.5"></path><path d="M1120.36 669.58L1240.87 678.86" stroke="#132e65" stroke-width="1.5"></path><path d="M1120.36 669.58L1008.19 508.01" stroke="#132e65" stroke-width="1.5"></path><path d="M1120.36 669.58L1311.76 521.1" stroke="#132e65" stroke-width="1.5"></path><path d="M1284.22 -51.53L1284.22 -51.53" stroke="#132e65" stroke-width="1.5"></path><path d="M1284.22 -51.53L1245.74 41.4" stroke="#132e65" stroke-width="1.5"></path><path d="M1284.22 -51.53L1157.11 -47.15" stroke="#132e65" stroke-width="1.5"></path><path d="M1284.22 -51.53L1420 -57.28" stroke="#132e65" stroke-width="1.5"></path><path d="M1284.22 -51.53L1388.71 109.99" stroke="#132e65" stroke-width="1.5"></path><path d="M1245.74 41.4L1245.74 41.4" stroke="#132e65" stroke-width="1.5"></path><path d="M1245.74 41.4L1388.71 109.99" stroke="#132e65" stroke-width="1.5"></path><path d="M1238.46 213.53L1238.46 213.53" stroke="#132e65" stroke-width="1.5"></path><path d="M1238.46 213.53L1241.17 370.6" stroke="#132e65" stroke-width="1.5"></path><path d="M1238.46 213.53L1245.74 41.4" stroke="#132e65" stroke-width="1.5"></path><path d="M1238.46 213.53L1388.71 109.99" stroke="#132e65" stroke-width="1.5"></path><path d="M1241.17 370.6L1241.17 370.6" stroke="#132e65" stroke-width="1.5"></path><path d="M1241.17 370.6L1397.38 369.44" stroke="#132e65" stroke-width="1.5"></path><path d="M1311.76 521.1L1311.76 521.1" stroke="#132e65" stroke-width="1.5"></path><path d="M1311.76 521.1L1428.72 506.5" stroke="#132e65" stroke-width="1.5"></path><path d="M1311.76 521.1L1241.17 370.6" stroke="#132e65" stroke-width="1.5"></path><path d="M1311.76 521.1L1240.87 678.86" stroke="#132e65" stroke-width="1.5"></path><path d="M1311.76 521.1L1397.38 369.44" stroke="#132e65" stroke-width="1.5"></path><path d="M1311.76 521.1L1122.37 534.26" stroke="#132e65" stroke-width="1.5"></path><path d="M1240.87 678.86L1240.87 678.86" stroke="#132e65" stroke-width="1.5"></path><path d="M1240.87 678.86L1122.37 534.26" stroke="#132e65" stroke-width="1.5"></path><path d="M1420 -57.28L1420 -57.28" stroke="#132e65" stroke-width="1.5"></path><path d="M1420 -57.28L1584.8 -37.63" stroke="#132e65" stroke-width="1.5"></path><path d="M1420 -57.28L1388.71 109.99" stroke="#132e65" stroke-width="1.5"></path><path d="M1420 -57.28L1550.37 65.33" stroke="#132e65" stroke-width="1.5"></path><path d="M1388.71 109.99L1388.71 109.99" stroke="#132e65" stroke-width="1.5"></path><path d="M1388.71 109.99L1437.86 219.02" stroke="#132e65" stroke-width="1.5"></path><path d="M1388.71 109.99L1550.37 65.33" stroke="#132e65" stroke-width="1.5"></path><path d="M1437.86 219.02L1437.86 219.02" stroke="#132e65" stroke-width="1.5"></path><path d="M1437.86 219.02L1397.38 369.44" stroke="#132e65" stroke-width="1.5"></path><path d="M1397.38 369.44L1397.38 369.44" stroke="#132e65" stroke-width="1.5"></path><path d="M1397.38 369.44L1428.72 506.5" stroke="#132e65" stroke-width="1.5"></path><path d="M1397.38 369.44L1541.25 345.29" stroke="#132e65" stroke-width="1.5"></path><path d="M1428.72 506.5L1428.72 506.5" stroke="#132e65" stroke-width="1.5"></path><path d="M1428.72 506.5L1561.82 489.1" stroke="#132e65" stroke-width="1.5"></path><path d="M1428.72 506.5L1460.36 686.6" stroke="#132e65" stroke-width="1.5"></path><path d="M1460.36 686.6L1460.36 686.6" stroke="#132e65" stroke-width="1.5"></path><path d="M1460.36 686.6L1240.87 678.86" stroke="#132e65" stroke-width="1.5"></path><path d="M1460.36 686.6L1561.82 489.1" stroke="#132e65" stroke-width="1.5"></path><path d="M1460.36 686.6L1311.76 521.1" stroke="#132e65" stroke-width="1.5"></path><path d="M1584.8 -37.63L1584.8 -37.63" stroke="#132e65" stroke-width="1.5"></path><path d="M1584.8 -37.63L1550.37 65.33" stroke="#132e65" stroke-width="1.5"></path><path d="M1584.8 -37.63L1388.71 109.99" stroke="#132e65" stroke-width="1.5"></path><path d="M1584.8 -37.63L1437.86 219.02" stroke="#132e65" stroke-width="1.5"></path><path d="M1584.8 -37.63L1284.22 -51.53" stroke="#132e65" stroke-width="1.5"></path><path d="M1584.8 -37.63L1245.74 41.4" stroke="#132e65" stroke-width="1.5"></path><path d="M1550.37 65.33L1550.37 65.33" stroke="#132e65" stroke-width="1.5"></path><path d="M1550.37 65.33L1437.86 219.02" stroke="#132e65" stroke-width="1.5"></path><path d="M1550.37 65.33L1541.25 345.29" stroke="#132e65" stroke-width="1.5"></path><path d="M1541.25 345.29L1541.25 345.29" stroke="#132e65" stroke-width="1.5"></path><path d="M1541.25 345.29L1561.82 489.1" stroke="#132e65" stroke-width="1.5"></path><path d="M1561.82 489.1L1561.82 489.1" stroke="#132e65" stroke-width="1.5"></path><path d="M1561.82 489.1L1397.38 369.44" stroke="#132e65" stroke-width="1.5"></path><path d="M1561.82 489.1L1311.76 521.1" stroke="#132e65" stroke-width="1.5"></path><circle r="5" cx="-40.65" cy="394.73" fill="#132e65"></circle><circle r="5" cx="-95.76" cy="527.95" fill="#132e65"></circle><circle r="5" cx="-90.16" cy="647.64" fill="#132e65"></circle><circle r="5" cx="103.36" cy="516.74" fill="#132e65"></circle><circle r="5" cx="65.12" cy="700.35" fill="#132e65"></circle><circle r="5" cx="245.98" cy="409.74" fill="#132e65"></circle><circle r="5" cx="245.62" cy="559.56" fill="#132e65"></circle><circle r="5" cx="189.27" cy="666.29" fill="#132e65"></circle><circle r="5" cx="389.09" cy="360.63" fill="#132e65"></circle><circle r="5" cx="407.81" cy="491.43" fill="#132e65"></circle><circle r="5" cx="356.38" cy="663.06" fill="#132e65"></circle><circle r="5" cx="535.38" cy="410.74" fill="#132e65"></circle><circle r="5" cx="521.3" cy="556.16" fill="#132e65"></circle><circle r="5" cx="523.33" cy="641.01" fill="#132e65"></circle><circle r="5" cx="704.81" cy="234.04" fill="#132e65"></circle><circle r="5" cx="677.18" cy="378.92" fill="#132e65"></circle><circle r="5" cx="674.64" cy="558.4" fill="#132e65"></circle><circle r="5" cx="651.69" cy="668.59" fill="#132e65"></circle><circle r="5" cx="801.8" cy="203.21" fill="#132e65"></circle><circle r="5" cx="848.81" cy="363.15" fill="#132e65"></circle><circle r="5" cx="810.75" cy="490.49" fill="#132e65"></circle><circle r="5" cx="827.13" cy="675.45" fill="#132e65"></circle><circle r="5" cx="958.96" cy="-79.96" fill="#132e65"></circle><circle r="5" cx="974.73" cy="80.06" fill="#132e65"></circle><circle r="5" cx="948.18" cy="198.33" fill="#132e65"></circle><circle r="5" cx="975.84" cy="365.02" fill="#132e65"></circle><circle r="5" cx="1008.19" cy="508.01" fill="#132e65"></circle><circle r="5" cx="992.12" cy="687.6" fill="#132e65"></circle><circle r="5" cx="1157.11" cy="-47.15" fill="#132e65"></circle><circle r="5" cx="1154.98" cy="76.27" fill="#132e65"></circle><circle r="5" cx="1093.6" cy="365.62" fill="#132e65"></circle><circle r="5" cx="1122.37" cy="534.26" fill="#132e65"></circle><circle r="5" cx="1120.36" cy="669.58" fill="#132e65"></circle><circle r="5" cx="1284.22" cy="-51.53" fill="#132e65"></circle><circle r="5" cx="1245.74" cy="41.4" fill="#132e65"></circle><circle r="5" cx="1238.46" cy="213.53" fill="#132e65"></circle><circle r="5" cx="1241.17" cy="370.6" fill="#132e65"></circle><circle r="5" cx="1311.76" cy="521.1" fill="#132e65"></circle><circle r="5" cx="1240.87" cy="678.86" fill="#132e65"></circle><circle r="5" cx="1420" cy="-57.28" fill="#132e65"></circle><circle r="5" cx="1388.71" cy="109.99" fill="#132e65"></circle><circle r="5" cx="1437.86" cy="219.02" fill="#132e65"></circle><circle r="5" cx="1397.38" cy="369.44" fill="#132e65"></circle><circle r="5" cx="1428.72" cy="506.5" fill="#132e65"></circle><circle r="5" cx="1460.36" cy="686.6" fill="#132e65"></circle><circle r="5" cx="1584.8" cy="-37.63" fill="#132e65"></circle><circle r="5" cx="1550.37" cy="65.33" fill="#132e65"></circle><circle r="5" cx="1541.25" cy="345.29" fill="#132e65"></circle><circle r="5" cx="1561.82" cy="489.1" fill="#132e65"></circle><path d="M43.95 520.79L43.95 520.79" stroke="hsl(187.5, 100%, 100%)" stroke-width="1.5"></path><path d="M43.95 520.79L-56.54 516.8" stroke="hsl(187.5, 100%, 100%)" stroke-width="1.5"></path><path d="M43.95 520.79L46.66 673.53" stroke="hsl(187.5, 100%, 100%)" stroke-width="1.5"></path><path d="M261.9 512.04L261.9 512.04" stroke="hsl(187.5, 100%, 100%)" stroke-width="1.5"></path><path d="M261.9 512.04L360.53 498.17" stroke="hsl(187.5, 100%, 100%)" stroke-width="1.5"></path><path d="M261.9 512.04L245.78 672.21" stroke="hsl(187.5, 100%, 100%)" stroke-width="1.5"></path><path d="M261.9 512.04L391.6 665.62" stroke="hsl(187.5, 100%, 100%)" stroke-width="1.5"></path><path d="M261.9 512.04L43.95 520.79" stroke="hsl(187.5, 100%, 100%)" stroke-width="1.5"></path><path d="M391.6 665.62L391.6 665.62" stroke="hsl(187.5, 100%, 100%)" stroke-width="1.5"></path><path d="M391.6 665.62L245.78 672.21" stroke="hsl(187.5, 100%, 100%)" stroke-width="1.5"></path><path d="M391.6 665.62L552.02 671.93" stroke="hsl(187.5, 100%, 100%)" stroke-width="1.5"></path><path d="M391.6 665.62L360.53 498.17" stroke="hsl(187.5, 100%, 100%)" stroke-width="1.5"></path><path d="M986.99 345.97L986.99 345.97" stroke="hsl(187.5, 100%, 100%)" stroke-width="1.5"></path><path d="M986.99 345.97L1093.15 389.29" stroke="hsl(187.5, 100%, 100%)" stroke-width="1.5"></path><path d="M986.99 345.97L1104.51 224.29" stroke="hsl(187.5, 100%, 100%)" stroke-width="1.5"></path><path d="M986.99 345.97L802.23 346.41" stroke="hsl(187.5, 100%, 100%)" stroke-width="1.5"></path><path d="M986.99 345.97L1137.84 496.47" stroke="hsl(187.5, 100%, 100%)" stroke-width="1.5"></path><path d="M950.17 667.73L950.17 667.73" stroke="hsl(187.5, 100%, 100%)" stroke-width="1.5"></path><path d="M950.17 667.73L968.88 561.11" stroke="hsl(187.5, 100%, 100%)" stroke-width="1.5"></path><path d="M950.17 667.73L1114.47 648.64" stroke="hsl(187.5, 100%, 100%)" stroke-width="1.5"></path><path d="M1093.15 389.29L1093.15 389.29" stroke="hsl(187.5, 100%, 100%)" stroke-width="1.5"></path><path d="M1093.15 389.29L1137.84 496.47" stroke="hsl(187.5, 100%, 100%)" stroke-width="1.5"></path><path d="M1093.15 389.29L1104.51 224.29" stroke="hsl(187.5, 100%, 100%)" stroke-width="1.5"></path><path d="M1093.15 389.29L1258.03 501.57" stroke="hsl(187.5, 100%, 100%)" stroke-width="1.5"></path><path d="M1242.28 -92.71L1242.28 -92.71" stroke="hsl(187.5, 100%, 100%)" stroke-width="1.5"></path><path d="M1242.28 -92.71L1155.19 -55.16" stroke="hsl(187.5, 100%, 100%)" stroke-width="1.5"></path><path d="M1242.28 -92.71L1265.66 41.19" stroke="hsl(187.5, 100%, 100%)" stroke-width="1.5"></path><path d="M1242.28 -92.71L1453.33 -51.54" stroke="hsl(187.5, 100%, 100%)" stroke-width="1.5"></path><path d="M1242.28 -92.71L1444.77 44.76" stroke="hsl(187.5, 100%, 100%)" stroke-width="1.5"></path><path d="M1242.28 -92.71L1239.72 225.53" stroke="hsl(187.5, 100%, 100%)" stroke-width="1.5"></path><path d="M1413.69 342.51L1413.69 342.51" stroke="hsl(187.5, 100%, 100%)" stroke-width="1.5"></path><path d="M1413.69 342.51L1430.26 227.47" stroke="hsl(187.5, 100%, 100%)" stroke-width="1.5"></path><path d="M1413.69 342.51L1308.14 411.27" stroke="hsl(187.5, 100%, 100%)" stroke-width="1.5"></path><path d="M1413.69 342.51L1446.68 496.07" stroke="hsl(187.5, 100%, 100%)" stroke-width="1.5"></path><path d="M1605.9 -66.41L1605.9 -66.41" stroke="hsl(187.5, 100%, 100%)" stroke-width="1.5"></path><path d="M1605.9 -66.41L1453.33 -51.54" stroke="hsl(187.5, 100%, 100%)" stroke-width="1.5"></path><path d="M1605.9 -66.41L1554.51 108.65" stroke="hsl(187.5, 100%, 100%)" stroke-width="1.5"></path><path d="M1605.9 -66.41L1444.77 44.76" stroke="hsl(187.5, 100%, 100%)" stroke-width="1.5"></path><path d="M1605.9 -66.41L1606.71 246.02" stroke="hsl(187.5, 100%, 100%)" stroke-width="1.5"></path><path d="M1605.9 -66.41L1430.26 227.47" stroke="hsl(187.5, 100%, 100%)" stroke-width="1.5"></path><path d="M1605.9 -66.41L1265.66 41.19" stroke="hsl(187.5, 100%, 100%)" stroke-width="1.5"></path><path d="M-56.54 516.8L-56.54 516.8" stroke="hsl(187.5, 100%, 100%)" stroke-width="1.5"></path><path d="M-56.54 516.8L46.66 673.53" stroke="hsl(187.5, 100%, 100%)" stroke-width="1.5"></path><path d="M-37.91 709.07L-37.91 709.07" stroke="hsl(187.5, 100%, 100%)" stroke-width="1.5"></path><path d="M-37.91 709.07L46.66 673.53" stroke="hsl(187.5, 100%, 100%)" stroke-width="1.5"></path><path d="M-37.91 709.07L-56.54 516.8" stroke="hsl(187.5, 100%, 100%)" stroke-width="1.5"></path><path d="M-37.91 709.07L43.95 520.79" stroke="hsl(187.5, 100%, 100%)" stroke-width="1.5"></path><path d="M-37.91 709.07L245.78 672.21" stroke="hsl(187.5, 100%, 100%)" stroke-width="1.5"></path><path d="M46.66 673.53L46.66 673.53" stroke="hsl(187.5, 100%, 100%)" stroke-width="1.5"></path><path d="M46.66 673.53L245.78 672.21" stroke="hsl(187.5, 100%, 100%)" stroke-width="1.5"></path><path d="M245.78 672.21L245.78 672.21" stroke="hsl(187.5, 100%, 100%)" stroke-width="1.5"></path><path d="M360.53 498.17L360.53 498.17" stroke="hsl(187.5, 100%, 100%)" stroke-width="1.5"></path><path d="M360.53 498.17L556.96 553.44" stroke="hsl(187.5, 100%, 100%)" stroke-width="1.5"></path><path d="M360.53 498.17L245.78 672.21" stroke="hsl(187.5, 100%, 100%)" stroke-width="1.5"></path><path d="M556.96 553.44L556.96 553.44" stroke="hsl(187.5, 100%, 100%)" stroke-width="1.5"></path><path d="M556.96 553.44L552.02 671.93" stroke="hsl(187.5, 100%, 100%)" stroke-width="1.5"></path><path d="M556.96 553.44L679.44 555.22" stroke="hsl(187.5, 100%, 100%)" stroke-width="1.5"></path><path d="M556.96 553.44L688.57 680.56" stroke="hsl(187.5, 100%, 100%)" stroke-width="1.5"></path><path d="M556.96 553.44L662.25 401.27" stroke="hsl(187.5, 100%, 100%)" stroke-width="1.5"></path><path d="M552.02 671.93L552.02 671.93" stroke="hsl(187.5, 100%, 100%)" stroke-width="1.5"></path><path d="M552.02 671.93L688.57 680.56" stroke="hsl(187.5, 100%, 100%)" stroke-width="1.5"></path><path d="M662.25 401.27L662.25 401.27" stroke="hsl(187.5, 100%, 100%)" stroke-width="1.5"></path><path d="M662.25 401.27L802.23 346.41" stroke="hsl(187.5, 100%, 100%)" stroke-width="1.5"></path><path d="M662.25 401.27L679.44 555.22" stroke="hsl(187.5, 100%, 100%)" stroke-width="1.5"></path><path d="M662.25 401.27L839.11 527.98" stroke="hsl(187.5, 100%, 100%)" stroke-width="1.5"></path><path d="M662.25 401.27L688.57 680.56" stroke="hsl(187.5, 100%, 100%)" stroke-width="1.5"></path><path d="M662.25 401.27L552.02 671.93" stroke="hsl(187.5, 100%, 100%)" stroke-width="1.5"></path><path d="M679.44 555.22L679.44 555.22" stroke="hsl(187.5, 100%, 100%)" stroke-width="1.5"></path><path d="M679.44 555.22L688.57 680.56" stroke="hsl(187.5, 100%, 100%)" stroke-width="1.5"></path><path d="M688.57 680.56L688.57 680.56" stroke="hsl(187.5, 100%, 100%)" stroke-width="1.5"></path><path d="M688.57 680.56L839.11 527.98" stroke="hsl(187.5, 100%, 100%)" stroke-width="1.5"></path><path d="M688.57 680.56L950.17 667.73" stroke="hsl(187.5, 100%, 100%)" stroke-width="1.5"></path><path d="M802.23 346.41L802.23 346.41" stroke="hsl(187.5, 100%, 100%)" stroke-width="1.5"></path><path d="M839.11 527.98L839.11 527.98" stroke="hsl(187.5, 100%, 100%)" stroke-width="1.5"></path><path d="M839.11 527.98L968.88 561.11" stroke="hsl(187.5, 100%, 100%)" stroke-width="1.5"></path><path d="M839.11 527.98L679.44 555.22" stroke="hsl(187.5, 100%, 100%)" stroke-width="1.5"></path><path d="M839.11 527.98L950.17 667.73" stroke="hsl(187.5, 100%, 100%)" stroke-width="1.5"></path><path d="M839.11 527.98L802.23 346.41" stroke="hsl(187.5, 100%, 100%)" stroke-width="1.5"></path><path d="M968.88 561.11L968.88 561.11" stroke="hsl(187.5, 100%, 100%)" stroke-width="1.5"></path><path d="M968.88 561.11L1114.47 648.64" stroke="hsl(187.5, 100%, 100%)" stroke-width="1.5"></path><path d="M968.88 561.11L1137.84 496.47" stroke="hsl(187.5, 100%, 100%)" stroke-width="1.5"></path><path d="M968.88 561.11L1093.15 389.29" stroke="hsl(187.5, 100%, 100%)" stroke-width="1.5"></path><path d="M968.88 561.11L986.99 345.97" stroke="hsl(187.5, 100%, 100%)" stroke-width="1.5"></path><path d="M1155.19 -55.16L1155.19 -55.16" stroke="hsl(187.5, 100%, 100%)" stroke-width="1.5"></path><path d="M1155.19 -55.16L1265.66 41.19" stroke="hsl(187.5, 100%, 100%)" stroke-width="1.5"></path><path d="M1155.19 -55.16L1104.51 224.29" stroke="hsl(187.5, 100%, 100%)" stroke-width="1.5"></path><path d="M1155.19 -55.16L1239.72 225.53" stroke="hsl(187.5, 100%, 100%)" stroke-width="1.5"></path><path d="M1155.19 -55.16L1453.33 -51.54" stroke="hsl(187.5, 100%, 100%)" stroke-width="1.5"></path><path d="M1104.51 224.29L1104.51 224.29" stroke="hsl(187.5, 100%, 100%)" stroke-width="1.5"></path><path d="M1104.51 224.29L1239.72 225.53" stroke="hsl(187.5, 100%, 100%)" stroke-width="1.5"></path><path d="M1137.84 496.47L1137.84 496.47" stroke="hsl(187.5, 100%, 100%)" stroke-width="1.5"></path><path d="M1137.84 496.47L1258.03 501.57" stroke="hsl(187.5, 100%, 100%)" stroke-width="1.5"></path><path d="M1137.84 496.47L1114.47 648.64" stroke="hsl(187.5, 100%, 100%)" stroke-width="1.5"></path><path d="M1137.84 496.47L1308.14 411.27" stroke="hsl(187.5, 100%, 100%)" stroke-width="1.5"></path><path d="M1114.47 648.64L1114.47 648.64" stroke="hsl(187.5, 100%, 100%)" stroke-width="1.5"></path><path d="M1114.47 648.64L1311.34 687.37" stroke="hsl(187.5, 100%, 100%)" stroke-width="1.5"></path><path d="M1114.47 648.64L1258.03 501.57" stroke="hsl(187.5, 100%, 100%)" stroke-width="1.5"></path><path d="M1265.66 41.19L1265.66 41.19" stroke="hsl(187.5, 100%, 100%)" stroke-width="1.5"></path><path d="M1265.66 41.19L1444.77 44.76" stroke="hsl(187.5, 100%, 100%)" stroke-width="1.5"></path><path d="M1265.66 41.19L1239.72 225.53" stroke="hsl(187.5, 100%, 100%)" stroke-width="1.5"></path><path d="M1265.66 41.19L1453.33 -51.54" stroke="hsl(187.5, 100%, 100%)" stroke-width="1.5"></path><path d="M1265.66 41.19L1104.51 224.29" stroke="hsl(187.5, 100%, 100%)" stroke-width="1.5"></path><path d="M1239.72 225.53L1239.72 225.53" stroke="hsl(187.5, 100%, 100%)" stroke-width="1.5"></path><path d="M1239.72 225.53L1430.26 227.47" stroke="hsl(187.5, 100%, 100%)" stroke-width="1.5"></path><path d="M1239.72 225.53L1308.14 411.27" stroke="hsl(187.5, 100%, 100%)" stroke-width="1.5"></path><path d="M1308.14 411.27L1308.14 411.27" stroke="hsl(187.5, 100%, 100%)" stroke-width="1.5"></path><path d="M1308.14 411.27L1258.03 501.57" stroke="hsl(187.5, 100%, 100%)" stroke-width="1.5"></path><path d="M1308.14 411.27L1446.68 496.07" stroke="hsl(187.5, 100%, 100%)" stroke-width="1.5"></path><path d="M1258.03 501.57L1258.03 501.57" stroke="hsl(187.5, 100%, 100%)" stroke-width="1.5"></path><path d="M1258.03 501.57L1446.68 496.07" stroke="hsl(187.5, 100%, 100%)" stroke-width="1.5"></path><path d="M1311.34 687.37L1311.34 687.37" stroke="hsl(187.5, 100%, 100%)" stroke-width="1.5"></path><path d="M1311.34 687.37L1389.31 674.8" stroke="hsl(187.5, 100%, 100%)" stroke-width="1.5"></path><path d="M1311.34 687.37L1258.03 501.57" stroke="hsl(187.5, 100%, 100%)" stroke-width="1.5"></path><path d="M1311.34 687.37L1446.68 496.07" stroke="hsl(187.5, 100%, 100%)" stroke-width="1.5"></path><path d="M1453.33 -51.54L1453.33 -51.54" stroke="hsl(187.5, 100%, 100%)" stroke-width="1.5"></path><path d="M1453.33 -51.54L1444.77 44.76" stroke="hsl(187.5, 100%, 100%)" stroke-width="1.5"></path><path d="M1453.33 -51.54L1554.51 108.65" stroke="hsl(187.5, 100%, 100%)" stroke-width="1.5"></path><path d="M1444.77 44.76L1444.77 44.76" stroke="hsl(187.5, 100%, 100%)" stroke-width="1.5"></path><path d="M1444.77 44.76L1554.51 108.65" stroke="hsl(187.5, 100%, 100%)" stroke-width="1.5"></path><path d="M1430.26 227.47L1430.26 227.47" stroke="hsl(187.5, 100%, 100%)" stroke-width="1.5"></path><path d="M1430.26 227.47L1554.51 108.65" stroke="hsl(187.5, 100%, 100%)" stroke-width="1.5"></path><path d="M1430.26 227.47L1606.71 246.02" stroke="hsl(187.5, 100%, 100%)" stroke-width="1.5"></path><path d="M1430.26 227.47L1444.77 44.76" stroke="hsl(187.5, 100%, 100%)" stroke-width="1.5"></path><path d="M1446.68 496.07L1446.68 496.07" stroke="hsl(187.5, 100%, 100%)" stroke-width="1.5"></path><path d="M1389.31 674.8L1389.31 674.8" stroke="hsl(187.5, 100%, 100%)" stroke-width="1.5"></path><path d="M1389.31 674.8L1547.99 657.33" stroke="hsl(187.5, 100%, 100%)" stroke-width="1.5"></path><path d="M1389.31 674.8L1446.68 496.07" stroke="hsl(187.5, 100%, 100%)" stroke-width="1.5"></path><path d="M1389.31 674.8L1258.03 501.57" stroke="hsl(187.5, 100%, 100%)" stroke-width="1.5"></path><path d="M1389.31 674.8L1611.94 550.79" stroke="hsl(187.5, 100%, 100%)" stroke-width="1.5"></path><path d="M1389.31 674.8L1308.14 411.27" stroke="hsl(187.5, 100%, 100%)" stroke-width="1.5"></path><path d="M1554.51 108.65L1554.51 108.65" stroke="hsl(187.5, 100%, 100%)" stroke-width="1.5"></path><path d="M1554.51 108.65L1606.71 246.02" stroke="hsl(187.5, 100%, 100%)" stroke-width="1.5"></path><path d="M1606.71 246.02L1606.71 246.02" stroke="hsl(187.5, 100%, 100%)" stroke-width="1.5"></path><path d="M1606.71 246.02L1575.79 400.8" stroke="hsl(187.5, 100%, 100%)" stroke-width="1.5"></path><path d="M1606.71 246.02L1413.69 342.51" stroke="hsl(187.5, 100%, 100%)" stroke-width="1.5"></path><path d="M1606.71 246.02L1444.77 44.76" stroke="hsl(187.5, 100%, 100%)" stroke-width="1.5"></path><path d="M1606.71 246.02L1446.68 496.07" stroke="hsl(187.5, 100%, 100%)" stroke-width="1.5"></path><path d="M1575.79 400.8L1575.79 400.8" stroke="hsl(187.5, 100%, 100%)" stroke-width="1.5"></path><path d="M1575.79 400.8L1611.94 550.79" stroke="hsl(187.5, 100%, 100%)" stroke-width="1.5"></path><path d="M1611.94 550.79L1611.94 550.79" stroke="hsl(187.5, 100%, 100%)" stroke-width="1.5"></path><path d="M1611.94 550.79L1547.99 657.33" stroke="hsl(187.5, 100%, 100%)" stroke-width="1.5"></path><path d="M1611.94 550.79L1446.68 496.07" stroke="hsl(187.5, 100%, 100%)" stroke-width="1.5"></path><path d="M1611.94 550.79L1413.69 342.51" stroke="hsl(187.5, 100%, 100%)" stroke-width="1.5"></path><path d="M1611.94 550.79L1606.71 246.02" stroke="hsl(187.5, 100%, 100%)" stroke-width="1.5"></path><path d="M1547.99 657.33L1547.99 657.33" stroke="hsl(187.5, 100%, 100%)" stroke-width="1.5"></path><path d="M1547.99 657.33L1446.68 496.07" stroke="hsl(187.5, 100%, 100%)" stroke-width="1.5"></path><path d="M1547.99 657.33L1311.34 687.37" stroke="hsl(187.5, 100%, 100%)" stroke-width="1.5"></path><path d="M1547.99 657.33L1575.79 400.8" stroke="hsl(187.5, 100%, 100%)" stroke-width="1.5"></path><path d="M1547.99 657.33L1258.03 501.57" stroke="hsl(187.5, 100%, 100%)" stroke-width="1.5"></path><circle r="25" cx="43.95" cy="520.79" fill="url(&quot;#SvgjsRadialGradient2480&quot;)"></circle><circle r="25" cx="261.9" cy="512.04" fill="url(&quot;#SvgjsRadialGradient2480&quot;)"></circle><circle r="25" cx="391.6" cy="665.62" fill="url(&quot;#SvgjsRadialGradient2480&quot;)"></circle><circle r="25" cx="986.99" cy="345.97" fill="url(&quot;#SvgjsRadialGradient2480&quot;)"></circle><circle r="25" cx="950.17" cy="667.73" fill="url(&quot;#SvgjsRadialGradient2480&quot;)"></circle><circle r="25" cx="1093.15" cy="389.29" fill="url(&quot;#SvgjsRadialGradient2480&quot;)"></circle><circle r="25" cx="1242.28" cy="-92.71" fill="url(&quot;#SvgjsRadialGradient2480&quot;)"></circle><circle r="25" cx="1413.69" cy="342.51" fill="url(&quot;#SvgjsRadialGradient2480&quot;)"></circle><circle r="25" cx="1605.9" cy="-66.41" fill="url(&quot;#SvgjsRadialGradient2480&quot;)"></circle><circle r="5" cx="-56.54" cy="516.8" fill="#f3feff"></circle><circle r="5" cx="-37.91" cy="709.07" fill="#f3feff"></circle><circle r="5" cx="46.66" cy="673.53" fill="#f3feff"></circle><circle r="5" cx="245.78" cy="672.21" fill="#f3feff"></circle><circle r="5" cx="360.53" cy="498.17" fill="#f3feff"></circle><circle r="5" cx="556.96" cy="553.44" fill="#f3feff"></circle><circle r="5" cx="552.02" cy="671.93" fill="#f3feff"></circle><circle r="5" cx="662.25" cy="401.27" fill="#f3feff"></circle><circle r="5" cx="679.44" cy="555.22" fill="#f3feff"></circle><circle r="5" cx="688.57" cy="680.56" fill="#f3feff"></circle><circle r="5" cx="802.23" cy="346.41" fill="#f3feff"></circle><circle r="5" cx="839.11" cy="527.98" fill="#f3feff"></circle><circle r="5" cx="968.88" cy="561.11" fill="#f3feff"></circle><circle r="5" cx="1155.19" cy="-55.16" fill="#f3feff"></circle><circle r="5" cx="1104.51" cy="224.29" fill="#f3feff"></circle><circle r="5" cx="1137.84" cy="496.47" fill="#f3feff"></circle><circle r="5" cx="1114.47" cy="648.64" fill="#f3feff"></circle><circle r="5" cx="1265.66" cy="41.19" fill="#f3feff"></circle><circle r="5" cx="1239.72" cy="225.53" fill="#f3feff"></circle><circle r="5" cx="1308.14" cy="411.27" fill="#f3feff"></circle><circle r="5" cx="1258.03" cy="501.57" fill="#f3feff"></circle><circle r="5" cx="1311.34" cy="687.37" fill="#f3feff"></circle><circle r="5" cx="1453.33" cy="-51.54" fill="#f3feff"></circle><circle r="5" cx="1444.77" cy="44.76" fill="#f3feff"></circle><circle r="5" cx="1430.26" cy="227.47" fill="#f3feff"></circle><circle r="5" cx="1446.68" cy="496.07" fill="#f3feff"></circle><circle r="5" cx="1389.31" cy="674.8" fill="#f3feff"></circle><circle r="5" cx="1554.51" cy="108.65" fill="#f3feff"></circle><circle r="5" cx="1606.71" cy="246.02" fill="#f3feff"></circle><circle r="5" cx="1575.79" cy="400.8" fill="#f3feff"></circle><circle r="5" cx="1611.94" cy="550.79" fill="#f3feff"></circle><circle r="5" cx="1547.99" cy="657.33" fill="#f3feff"></circle></g><defs><mask id="SvgjsMask2478"><rect width="1440" height="560" fill="#ffffff"></rect></mask><linearGradient x1="15.28%" y1="-39.29%" x2="84.72%" y2="139.29%" gradientUnits="userSpaceOnUse" id="SvgjsLinearGradient2479"><stop stop-color="rgba(41, 132, 147, 0.91)" offset="0.63"></stop><stop stop-color="#00459e" offset="1"></stop></linearGradient><radialGradient id="SvgjsRadialGradient2480"><stop stop-color="#ffffff" offset="0.1"></stop><stop stop-color="rgba(231, 252, 255, 1)" offset="0.2"></stop><stop stop-color="rgba(231, 252, 255, 0)" offset="1"></stop></radialGradient></defs></svg>